#!OML:ASF H:\Terrain\Patient Classification 1\Walking\steve\steve.ASF
:FULLY-SPECIFIED
:DEGREES
196
root 9.03995 15.7674 -0.165732 5.60511 2.41922 5.33032
lowerback -0.222889 -0.832094 -6.60092
upperback -1.84879 -1.17267 -0.772783
thorax -1.66866 -0.492443 2.91445
lowerneck -7.11077 -0.158624 -2.18029
upperneck 16.0178 -0.407545 2.97959
head 6.02406 -0.103414 1.27377
rclavicle -5.75854e-015 2.28602e-014
rhumerus -62.6415 -10.6715 -70.7402
rradius 25.742
rwrist 9.29904
rhand -13.4183 -35.2117
rfingers 7.12502
rthumb 12.69 -64.8062
lclavicle -5.75854e-015 2.28602e-014
lhumerus -1.11494 -20.324 80.9759
lradius 43.4527
lwrist 14.3006
lhand -23.0811 -19.9923
lfingers 7.12502
lthumb 3.3648 9.96092
rfemur -47.1932 -0.0621014 16.893
rtibia 28.2052
rfoot -15.3961 2.15498
rtoes -6.21927
lfemur 19.8271 -1.21389 -29.4912
ltibia -6.99722e-014
lfoot -14.7821 -4.35704
ltoes 1.26093
197
root 9.02764 15.7134 0.000496065 5.57481 2.64722 5.10362
lowerback 0.080045 -0.871607 -6.39889
upperback -1.93853 -1.2487 -0.586789
thorax -1.92382 -0.522198 3.00052
lowerneck -7.08196 -0.143273 -2.0127
upperneck 15.9693 -0.373459 2.76321
head 6.00266 -0.0933658 1.17959
rclavicle -8.30547e-015 -3.10104e-014
rhumerus -63.0161 -10.4663 -70.6595
rradius 25.8769
rwrist 9.4109
rhand -13.6841 -34.4702
rfingers 7.12502
rthumb 12.4337 -64.0804
lclavicle -8.30547e-015 -3.10104e-014
lhumerus -0.947897 -21.4777 80.7657
lradius 44.4873
lwrist 15.2978
lhand -23.493 -19.4699
lfingers 7.12502
lthumb 2.96695 10.4892
rfemur -47.5736 0.547001 16.7206
rtibia 27.9827
rfoot -16.0469 1.75009
rtoes -7.28209
lfemur 20.5194 -1.43826 -29.1254
ltibia -1.90833e-014
lfoot -14.9817 -4.67117
ltoes 1.69816
198
root 9.03299 15.6585 0.202386 5.56336 2.95278 5.29845
lowerback -0.111354 -0.968548 -6.30329
upperback -1.89239 -1.36023 -0.599427
thorax -1.75928 -0.585556 2.93115
lowerneck -7.15518 -0.198852 -1.73104
upperneck 15.8849 -0.422109 2.37655
head 5.98943 -0.128918 1.00669
rclavicle -1.60891e-014 1.27222e-014
rhumerus -63.3349 -10.5313 -70.4749
rradius 26.0306
rwrist 9.50213
rhand -13.3548 -34.1065
rfingers 7.12502
rthumb 12.7512 -63.6972
lclavicle -1.60891e-014 1.27222e-014
lhumerus -0.866057 -21.5237 80.8666
lradius 45.3631
lwrist 15.2303
lhand -23.0007 -19.76
lfingers 7.12502
lthumb 3.4424 10.1919
rfemur -47.7199 0.499334 16.284
rtibia 27.711
rfoot -16.1738 1.50622
rtoes -9.27372
lfemur 21.3828 -1.73793 -29.3323
ltibia -6.36111e-015
lfoot -15.1924 -4.95924
ltoes 1.48777
199
root 9.03309 15.6066 0.396171 5.72003 3.45216 5.6866
lowerback -0.3028 -1.12231 -6.45579
upperback -1.8722 -1.55088 -0.631212
thorax -1.60979 -0.683632 2.98061
lowerneck -7.30489 -0.312746 -1.60377
upperneck 15.8686 -0.551373 2.12189
head 6.01245 -0.202357 0.895658
rclavicle 1.89715e-014 2.98177e-015
rhumerus -63.5596 -10.5193 -70.4682
rradius 26.2938
rwrist 9.03501
rhand -13.6753 -34.8726
rfingers 7.12502
rthumb 12.4422 -64.4823
lclavicle 1.89715e-014 2.98177e-015
lhumerus -0.71496 -21.899 80.8058
lradius 46.2983
lwrist 15.3329
lhand -22.7457 -20.2583
lfingers 7.12502
lthumb 3.68866 9.68953
rfemur -48.0775 0.617083 15.3765
rtibia 27.6765
rfoot -16.5928 1.65778
rtoes -4.07645
lfemur 22.0448 -2.28335 -29.6654
ltibia -5.08889e-014
lfoot -15.2203 -5.43137
ltoes 2.26721
200
root 9.03362 15.5463 0.590856 5.79047 4.02381 5.89222
lowerback -0.404052 -1.3088 -6.44393
upperback -1.77437 -1.78623 -0.564894
thorax -1.42657 -0.808682 3.03936
lowerneck -7.64183 -0.376462 -1.5787
upperneck 15.9343 -0.605094 1.91681
head 6.09232 -0.240521 0.822762
rclavicle -1.09394e-014 2.38542e-015
rhumerus -63.6895 -10.0943 -70.7063
rradius 26.5483
rwrist 8.28123
rhand -14.1658 -35.261
rfingers 7.12502
rthumb 11.9692 -64.8988
lclavicle -1.09394e-014 2.38542e-015
lhumerus -0.497114 -22.7908 80.5093
lradius 47.2795
lwrist 16.2009
lhand -23.3145 -20.0654
lfingers 7.12502
lthumb 3.13933 9.89123
rfemur -48.4096 0.607279 14.7839
rtibia 27.9711
rfoot -17.1066 1.50587
rtoes -2.8011
lfemur 22.7837 -2.86189 -29.8384
ltibia -4.13472e-014
lfoot -15.2945 -5.65058
ltoes 2.83558
201
root 9.03329 15.4903 0.783972 5.78116 4.44753 5.77878
lowerback -0.334532 -1.47247 -6.20774
upperback -1.69054 -2.00272 -0.361459
thorax -1.35723 -0.922662 3.1181
lowerneck -8.16737 -0.342455 -1.4601
upperneck 16.1074 -0.519697 1.60418
head 6.23607 -0.213584 0.710721
rclavicle -1.50828e-014 -5.1684e-015
rhumerus -63.7706 -9.68207 -70.7264
rradius 26.6981
rwrist 7.89974
rhand -14.3484 -35.0088
rfingers 7.12502
rthumb 11.7932 -64.6568
lclavicle -1.50828e-014 -5.1684e-015
lhumerus -0.720687 -21.7625 81.0789
lradius 48.0763
lwrist 15.438
lhand -23.3612 -20.0765
lfingers 7.12502
lthumb 3.09433 9.88082
rfemur -48.6471 0.535292 14.7515
rtibia 28.3069
rfoot -17.0439 0.271093
rtoes -8.66902
lfemur 23.5277 -3.24934 -29.7261
ltibia -9.85972e-014
lfoot -15.3877 -5.63182
ltoes 1.73021
